#!OML:ASF I:\salsa\salsa 7_09\Patient 1\Session 1\dancerfemale.ASF
:FULLY-SPECIFIED
:DEGREES
1977
root 14.4475 15.8874 -2.28466 -706.477 -799.713 -725.404
lowerback 5.83521 4.28762 -1.80095
upperback -6.09109 5.44405 -0.947297
thorax -9.81781 2.70443 -0.778372
lowerneck 4.3103 -10.2376 -11.5956
upperneck -1.51316 -14.1551 11.208
head 0.491305 -7.19212 5.10945
rclavicle 1.07903e-014 -6.36111e-015
rhumerus -6.40426 -0.073454 -93.9456
rradius 81.053
rwrist 12.7613
rhand -4.11727 405.723
rfingers 7.12502
rthumb 21.6413 -703.088
lclavicle 1.07903e-014 -6.36111e-015
lhumerus -54.7056 18.2249 57.0071
lradius 124.238
lwrist -1.56483
lhand -11.0354 49.0221
lfingers 7.12502
lthumb 14.9864 -281.54
rfemur -34.7809 -12.3209 30.0291
rtibia 31.0877
rfoot -8.56277 -46.5759
rtoes -5.95356
lfemur -4.08862 -1.85107 -22.4951
ltibia 33.2258
lfoot -28.4421 9.04572
ltoes -36.1165
1978
root 14.7532 15.8707 -2.27848 -709.014 -798.219 -723.097
lowerback 6.37575 4.18208 -2.0003
upperback -5.89513 5.28016 -0.911112
thorax -9.94433 2.6397 -0.641005
lowerneck 4.61114 -10.4622 -11.8368
upperneck -1.45288 -14.5028 11.2485
head 0.520695 -7.37287 5.15637
rclavicle 2.96003e-014 5.1684e-015
rhumerus -5.25395 -1.91983 -93.6372
rradius 78.0835
rwrist 13.3483
rhand -4.44643 406.747
rfingers 7.12502
rthumb 21.3252 -702.1
lclavicle 2.96003e-014 5.1684e-015
lhumerus -52.7417 17.7202 59.0118
lradius 123.876
lwrist -2.70403
lhand -11.5932 48.1287
lfingers 7.12502
lthumb 14.449 -282.394
rfemur -35.4642 -11.9501 29.1067
rtibia 30.9721
rfoot -8.24889 -47.5691
rtoes -7.9257
lfemur -4.89812 -2.23562 -22.7469
ltibia 32.8149
lfoot -29.0639 8.25002
ltoes -34.7222
1979
root 15.049 15.8546 -2.26754 -711.089 -796.822 -721.326
lowerback 6.846 4.12292 -2.0491
upperback -5.64632 5.19001 -0.941115
thorax -9.94903 2.59831 -0.656893
lowerneck 5.11279 -10.6953 -11.9243
upperneck -1.59265 -14.8622 11.2244
head 0.445151 -7.56417 5.18204
rclavicle 7.44821e-014 6.95746e-015
rhumerus -4.1063 -3.83822 -93.2323
rradius 75.1661
rwrist 13.7941
rhand -5.05045 407.935
rfingers 7.12502
rthumb 20.7449 -700.976
lclavicle 7.44821e-014 6.95746e-015
lhumerus -50.536 17.0661 61.1812
lradius 123.489
lwrist -3.47829
lhand -12.1793 47.5286
lfingers 7.12502
lthumb 13.8842 -282.955
rfemur -35.9302 -11.7257 28.0951
rtibia 30.9677
rfoot -9.24672 -47.9903
rtoes -11.1318
lfemur -5.79809 -2.48473 -23.0975
ltibia 32.7745
lfoot -29.5358 7.54308
ltoes -33.111
1980
root 15.3337 15.8429 -2.25424 -713.744 -795.528 -718.939
lowerback 7.31058 4.08574 -2.31607
upperback -5.4528 5.09386 -1.03807
thorax -10.0263 2.56484 -0.624619
lowerneck 5.58252 -10.9354 -11.9104
upperneck -1.53346 -15.2334 10.9719
head 0.408926 -7.75724 5.11828
rclavicle -7.09475e-014 -8.74653e-015
rhumerus -3.15306 -5.48616 -92.6671
rradius 72.6237
rwrist 13.6593
rhand -5.38829 408.402
rfingers 7.12502
rthumb 20.4203 -700.544
lclavicle -7.09475e-014 -8.74653e-015
lhumerus -48.3779 16.4706 63.3011
lradius 123.028
lwrist -4.54877
lhand -12.9459 46.4321
lfingers 7.12502
lthumb 13.1454 -284.002
rfemur -36.2318 -11.5862 26.7608
rtibia 31.0018
rfoot -9.93656 -47.5494
rtoes -11.8958
lfemur -6.7572 -2.33527 -23.7221
ltibia 32.9101
lfoot -29.8128 6.52355
ltoes -31.4754
1981
root 15.6045 15.8211 -2.24112 -716.093 -794.413 -716.892
lowerback 7.74971 4.11015 -2.59151
upperback -5.27525 5.07329 -1.16672
thorax -10.105 2.56668 -0.631986
lowerneck 5.93578 -11.1795 -11.8698
upperneck -1.32933 -15.6049 10.6987
head 0.429629 -7.94782 5.03276
rclavicle -6.76163e-014 3.57812e-015
rhumerus -2.5559 -6.9496 -91.9781
rradius 70.8928
rwrist 12.9394
rhand -5.33165 408.013
rfingers 7.12502
rthumb 20.4747 -700.927
lclavicle -6.76163e-014 3.57812e-015
lhumerus -46.1911 15.5897 65.6755
lradius 122.598
lwrist -5.31694
lhand -15.5951 46.6928
lfingers 7.12502
lthumb 10.5907 -283.594
rfemur -36.3295 -11.2027 25.3482
rtibia 31.0133
rfoot -9.21975 -46.5904
rtoes -8.82348
lfemur -7.64073 -1.7033 -24.3662
ltibia 33.169
lfoot -30.0461 5.2564
ltoes -30.2773
1982
root 15.8635 15.8153 -2.22671 -717.391 -793.505 -716.151
lowerback 8.32204 4.31934 -2.48242
upperback -5.06875 5.33762 -1.36339
thorax -10.1908 2.67636 -0.981937
lowerneck 6.54898 -11.4703 -11.6564
upperneck -1.39818 -16.0408 10.7786
head 0.351038 -8.18417 5.052
rclavicle 9.84916e-015 6.55989e-015
rhumerus -2.35223 -8.94492 -91.1616
rradius 69.8681
rwrist 12.7461
rhand -5.11796 407.852
rfingers 7.12502
rthumb 20.6801 -701.067
lclavicle 9.84916e-015 6.55989e-015
lhumerus -43.7831 14.3387 68.1061
lradius 122.092
lwrist -6.27658
lhand -16.5182 46.1209
lfingers 7.12502
lthumb 9.70024 -284.123
rfemur -35.9543 -10.6429 24.2036
rtibia 30.9395
rfoot -8.36556 -45.7428
rtoes -5.24824
lfemur -8.31193 -0.755992 -24.6482
ltibia 33.554
lfoot -30.4928 3.53549
ltoes -27.7823
